<?xml version="1.0" standalone="no"?>
<!DOCTYPE svg PUBLIC "-//W3C//DTD SVG 20010904//EN"
 "http://www.w3.org/TR/2001/REC-SVG-20010904/DTD/svg10.dtd">
<svg version="1.0" xmlns="http://www.w3.org/2000/svg"
 width="512.000000pt" height="512.000000pt" viewBox="0 0 512.000000 512.000000"
 preserveAspectRatio="xMidYMid meet">
<metadata>
Created by potrace 1.11, written by Peter Selinger 2001-2013
</metadata>
<g transform="translate(0.000000,512.000000) scale(0.100000,-0.100000)"
fill="#000000" stroke="none">
<path d="M2200 4549 c-440 -49 -780 -252 -1032 -614 -137 -198 -241 -493 -273
-775 -13 -115 -15 -158 -16 -310 0 -92 3 -185 5 -206 3 -22 8 -64 11 -94 68
-667 496 -1214 1065 -1361 145 -38 254 -48 450 -43 102 2 201 7 221 9 32 5 52
-4 155 -67 215 -130 528 -282 784 -380 260 -99 384 -139 396 -126 30 31 283
353 280 356 -2 2 -57 14 -123 28 -308 64 -589 147 -863 256 -183 73 -177 60
-67 128 241 146 426 347 545 593 76 154 129 340 167 582 14 87 13 519 -1 625
-57 429 -201 748 -454 1000 -226 225 -475 346 -820 395 -73 10 -349 13 -430 4z
m377 -354 c195 -32 348 -109 484 -244 131 -131 210 -261 276 -456 64 -190 88
-378 87 -670 -3 -615 -205 -1049 -579 -1238 -62 -31 -200 -74 -280 -86 -102
-17 -348 -7 -435 17 -400 111 -652 449 -737 987 -25 162 -24 563 2 710 55 314
146 525 299 694 143 160 358 271 566 294 86 9 233 6 317 -8z"/>
</g>
</svg>
